<svg xmlns="http://www.w3.org/2000/svg" xmlns:xlink="http://www.w3.org/1999/xlink" version="1.1" width="300" height="450">
<defs> 
<path id="right-pin-arrow" d="M2,2 L9,5 L2,8 z" fill="black" />
 <path id="left-pin-arrow" d="M9,2 L9,8 L2,5 z" fill="black" />
 <path id="right-pins-arrow" d="M2,2 L11,6 L2,10 z" fill="black" />
 <path id="left-pins-arrow" d="M11,2 L2,6 L11,10 z" fill="black" />
 </defs>
 <text x="150" y="24" fill="black" font-size="12" text-anchor="middle"> lsc_ml_ice40_cnn</text>
<rect id="rect" x="35" y="40" width="230" height="330" style="fill-opacity:0;stroke-width:1;" stroke="black"/> 
<text x="37" y="74" fill="black" font-size="12" text-anchor="start"> clk</text>
<line x1="10" y1="70" x2="32" y2="70"  stroke="black" stroke-width="1" /> 
<use x="26" y="65" xlink:href = "#right-pin-arrow"/>
<text x="37" y="104" fill="black" font-size="12" text-anchor="start"> resetn</text>
<line x1="10" y1="100" x2="32" y2="100"  stroke="black" stroke-width="1" /> 
<use x="26" y="95" xlink:href = "#right-pin-arrow"/>
<text x="37" y="134" fill="black" font-size="12" text-anchor="start"> i_start</text>
<line x1="10" y1="130" x2="32" y2="130"  stroke="black" stroke-width="1" /> 
<use x="26" y="125" xlink:href = "#right-pin-arrow"/>
<text x="37" y="164" fill="black" font-size="12" text-anchor="start"> i_we</text>
<line x1="10" y1="160" x2="32" y2="160"  stroke="black" stroke-width="1" /> 
<use x="26" y="155" xlink:href = "#right-pin-arrow"/>
<text x="37" y="194" fill="black" font-size="12" text-anchor="start"> i_waddr[15:0]</text>
<line x1="10" y1="190" x2="30" y2="190"  stroke="black" stroke-width="3" />  
<use x="24" y="184" xlink:href = "#right-pins-arrow"/>
<text x="37" y="224" fill="black" font-size="12" text-anchor="start"> i_din[15:0]</text>
<line x1="10" y1="220" x2="30" y2="220"  stroke="black" stroke-width="3" />  
<use x="24" y="214" xlink:href = "#right-pins-arrow"/>
<text x="37" y="254" fill="black" font-size="12" text-anchor="start"> i_debug_rdy</text>
<line x1="10" y1="250" x2="32" y2="250"  stroke="black" stroke-width="1" /> 
<use x="26" y="245" xlink:href = "#right-pin-arrow"/>
<text x="37" y="284" fill="black" font-size="12" text-anchor="start"> i_fifo_empty</text>
<line x1="10" y1="280" x2="32" y2="280"  stroke="black" stroke-width="1" /> 
<use x="26" y="275" xlink:href = "#right-pin-arrow"/>
<text x="37" y="314" fill="black" font-size="12" text-anchor="start"> i_fifo_low</text>
<line x1="10" y1="310" x2="32" y2="310"  stroke="black" stroke-width="1" /> 
<use x="26" y="305" xlink:href = "#right-pin-arrow"/>
<text x="37" y="344" fill="black" font-size="12" text-anchor="start"> i_fifo_dout[31:0]</text>
<line x1="10" y1="340" x2="30" y2="340"  stroke="black" stroke-width="3" />  
<use x="24" y="334" xlink:href = "#right-pins-arrow"/>
<text x="263" y="74" fill="black" font-size="12" text-anchor="end"> o_rd_rdy</text>
<line x1="265" y1="70" x2="287" y2="70"  stroke="black" stroke-width="1" /> 
<use x="281" y="65" xlink:href = "#right-pin-arrow"/>
<text x="263" y="104" fill="black" font-size="12" text-anchor="end"> o_we</text>
<line x1="265" y1="100" x2="287" y2="100"  stroke="black" stroke-width="1" /> 
<use x="281" y="95" xlink:href = "#right-pin-arrow"/>
<text x="263" y="134" fill="black" font-size="12" text-anchor="end"> o_dout[15:0]</text>
<line x1="265" y1="130" x2="285" y2="130"  stroke="black" stroke-width="3" />  
<use x="279" y="124" xlink:href = "#right-pins-arrow"/>
<text x="263" y="164" fill="black" font-size="12" text-anchor="end"> o_cycles[31:0]</text>
<line x1="265" y1="160" x2="285" y2="160"  stroke="black" stroke-width="3" />  
<use x="279" y="154" xlink:href = "#right-pins-arrow"/>
<text x="263" y="194" fill="black" font-size="12" text-anchor="end"> o_commands[31:0]</text>
<line x1="265" y1="190" x2="285" y2="190"  stroke="black" stroke-width="3" />  
<use x="279" y="184" xlink:href = "#right-pins-arrow"/>
<text x="263" y="224" fill="black" font-size="12" text-anchor="end"> o_fc_cycles[31:0]</text>
<line x1="265" y1="220" x2="285" y2="220"  stroke="black" stroke-width="3" />  
<use x="279" y="214" xlink:href = "#right-pins-arrow"/>
<text x="263" y="254" fill="black" font-size="12" text-anchor="end"> o_debug_vld</text>
<line x1="265" y1="250" x2="287" y2="250"  stroke="black" stroke-width="1" /> 
<use x="281" y="245" xlink:href = "#right-pin-arrow"/>
<text x="263" y="284" fill="black" font-size="12" text-anchor="end"> o_fill</text>
<line x1="265" y1="280" x2="287" y2="280"  stroke="black" stroke-width="1" /> 
<use x="281" y="275" xlink:href = "#right-pin-arrow"/>
<text x="263" y="314" fill="black" font-size="12" text-anchor="end"> o_fifo_rd</text>
<line x1="265" y1="310" x2="287" y2="310"  stroke="black" stroke-width="1" /> 
<use x="281" y="305" xlink:href = "#right-pin-arrow"/>
<text x="263" y="344" fill="black" font-size="12" text-anchor="end"> o_status[7:0]</text>
<line x1="265" y1="340" x2="285" y2="340"  stroke="black" stroke-width="3" />  
<use x="279" y="334" xlink:href = "#right-pins-arrow"/>
</svg>
